<svg width="16" height="16" viewBox="0 0 16 16" fill="none" xmlns="http://www.w3.org/2000/svg">
<path d="M2.862 5.52866C2.98702 5.40368 3.15656 5.33347 3.33333 5.33347C3.51011 5.33347 3.67965 5.40368 3.80467 5.52866L8 9.72399L12.1953 5.52866C12.2568 5.46499 12.3304 5.4142 12.4117 5.37926C12.4931 5.34432 12.5805 5.32593 12.6691 5.32516C12.7576 5.32439 12.8454 5.34126 12.9273 5.37478C13.0092 5.4083 13.0837 5.4578 13.1463 5.5204C13.2089 5.58299 13.2584 5.65743 13.2919 5.73936C13.3254 5.82129 13.3423 5.90907 13.3415 5.99759C13.3407 6.08611 13.3223 6.17359 13.2874 6.25493C13.2525 6.33627 13.2017 6.40983 13.138 6.47133L8.47133 11.138C8.34631 11.263 8.17678 11.3332 8 11.3332C7.82322 11.3332 7.65369 11.263 7.52867 11.138L2.862 6.47133C2.73702 6.34631 2.66681 6.17677 2.66681 5.99999C2.66681 5.82322 2.73702 5.65368 2.862 5.52866Z" fill="#6D6E85"/>
</svg>
