<svg width="16" height="16" viewBox="0 0 16 16" fill="none" xmlns="http://www.w3.org/2000/svg">
<rect width="16" height="16" rx="4" fill="#FEFBF0"/>
<path d="M4.9013 13.2555C4.8415 13.2985 4.77099 13.3242 4.69753 13.3296C4.62407 13.3351 4.55052 13.3202 4.48499 13.2866C4.41946 13.2529 4.36449 13.2019 4.32615 13.139C4.28781 13.0761 4.26758 13.0038 4.2677 12.9301V4.93333C4.2677 4.47362 4.45032 4.03274 4.77538 3.70768C5.10045 3.38262 5.54133 3.2 6.00103 3.2H10.0005C10.46 3.20014 10.9007 3.38275 11.2256 3.70768C11.5506 4.03261 11.7332 4.47327 11.7333 4.9328V12.9307C11.7333 13.0043 11.713 13.0765 11.6746 13.1393C11.6363 13.2021 11.5813 13.2531 11.5158 13.2867C11.4503 13.3203 11.3767 13.3352 11.3033 13.3296C11.2299 13.3241 11.1595 13.2985 11.0997 13.2555L8.0005 11.0256L4.90077 13.2549L4.9013 13.2555Z" fill="#F0C752"/>
</svg>
