<svg width="16" height="16" viewBox="0 0 16 16" fill="none" xmlns="http://www.w3.org/2000/svg">
<rect width="16" height="16" rx="4" fill="#EEF9F4"/>
<path d="M9.8869 11.7328L9.73223 12.4043C9.67452 12.6531 9.53891 12.877 9.34515 13.0434C9.15139 13.2098 8.90958 13.3101 8.6549 13.3296L8.56263 13.3333H7.43677C7.18122 13.3333 6.93234 13.2518 6.72638 13.1005C6.52042 12.9492 6.36814 12.7361 6.2917 12.4923L6.26717 12.4032L6.1125 11.7328H9.8869ZM7.99997 2.66721C9.02547 2.66721 10.009 3.07459 10.7341 3.79973C11.4593 4.52487 11.8666 5.50837 11.8666 6.53387C11.8666 7.67307 11.3674 8.71681 10.392 9.64854C10.3731 9.66658 10.3599 9.68976 10.3541 9.71521L10.0725 10.9328H8.39997V7.33334C8.39997 7.22725 8.35782 7.12551 8.28281 7.0505C8.20779 6.97548 8.10605 6.93334 7.99997 6.93334C7.89388 6.93334 7.79214 6.97548 7.71712 7.0505C7.64211 7.12551 7.59997 7.22725 7.59997 7.33334V10.9333H5.92743L5.6469 9.71574C5.64098 9.69048 5.62782 9.6675 5.60903 9.64961C4.63303 8.71681 4.1333 7.67307 4.1333 6.53334C4.13344 5.50793 4.54088 4.52456 5.26601 3.79954C5.99113 3.07451 6.97456 2.66721 7.99997 2.66721ZM7.59997 5.20054V6.00054C7.59997 6.10663 7.64211 6.20837 7.71712 6.28338C7.79214 6.3584 7.89388 6.40054 7.99997 6.40054C8.10605 6.40054 8.20779 6.3584 8.28281 6.28338C8.35782 6.20837 8.39997 6.10663 8.39997 6.00054V5.20054C8.39997 5.09445 8.35782 4.99271 8.28281 4.9177C8.20779 4.84268 8.10605 4.80054 7.99997 4.80054C7.89388 4.80054 7.79214 4.84268 7.71712 4.9177C7.64211 4.99271 7.59997 5.09445 7.59997 5.20054ZM10.2826 5.98187C10.2076 5.90697 10.106 5.86489 9.99997 5.86489C9.89397 5.86489 9.7923 5.90697 9.7173 5.98187L9.15143 6.54721C9.11321 6.58409 9.08272 6.62821 9.06173 6.677C9.04075 6.72579 9.02969 6.77828 9.0292 6.83139C9.02871 6.8845 9.03881 6.93717 9.0589 6.98634C9.07899 7.03551 9.10867 7.08018 9.14621 7.11776C9.18375 7.15533 9.22839 7.18506 9.27754 7.20519C9.32669 7.22533 9.37936 7.23547 9.43247 7.23504C9.48558 7.2346 9.53807 7.22359 9.58689 7.20265C9.6357 7.18171 9.67985 7.15126 9.71677 7.11307L10.2826 6.54774C10.3575 6.47274 10.3996 6.37107 10.3996 6.26507C10.3996 6.15907 10.3575 6.05741 10.2826 5.98241V5.98187ZM6.28263 5.98187C6.20681 5.91122 6.10652 5.87275 6.00289 5.87458C5.89926 5.87641 5.80039 5.91839 5.7271 5.99167C5.65382 6.06496 5.61184 6.16383 5.61001 6.26746C5.60818 6.37109 5.64664 6.47138 5.7173 6.54721L6.28263 7.11307C6.31951 7.15129 6.36364 7.18179 6.41243 7.20277C6.46122 7.22376 6.5137 7.23482 6.56682 7.2353C6.61993 7.23579 6.6726 7.2257 6.72177 7.20561C6.77094 7.18552 6.81561 7.15584 6.85319 7.1183C6.89076 7.08076 6.92048 7.03611 6.94062 6.98696C6.96076 6.93781 6.9709 6.88515 6.97046 6.83204C6.97003 6.77892 6.95902 6.72643 6.93808 6.67762C6.91714 6.62881 6.88669 6.58466 6.8485 6.54774L6.28317 5.98241L6.28263 5.98187Z" fill="#2DB77B"/>
</svg>
