<svg width="16" height="16" viewBox="0 0 16 16" fill="none" xmlns="http://www.w3.org/2000/svg">
<rect width="16" height="16" rx="4" fill="#FAEFF2"/>
<path d="M7.99892 9.06667C8.28182 9.06667 8.55313 8.95429 8.75316 8.75425C8.9532 8.55421 9.06558 8.2829 9.06558 8C9.06558 7.7171 8.9532 7.44579 8.75316 7.24575C8.55313 7.04572 8.28182 6.93333 7.99892 6.93333C7.71602 6.93333 7.44471 7.04572 7.24467 7.24575C7.04463 7.44579 6.93225 7.7171 6.93225 8C6.93225 8.2829 7.04463 8.55421 7.24467 8.75425C7.44471 8.95429 7.71602 9.06667 7.99892 9.06667Z" fill="#BE385E"/>
<path d="M4.79889 8C4.79889 7.1513 5.13603 6.33737 5.73615 5.73725C6.33626 5.13714 7.1502 4.8 7.99889 4.8C8.84758 4.8 9.66151 5.13714 10.2616 5.73725C10.8617 6.33737 11.1989 7.1513 11.1989 8C11.1989 8.84869 10.8617 9.66262 10.2616 10.2627C9.66151 10.8629 8.84758 11.2 7.99889 11.2C7.1502 11.2 6.33626 10.8629 5.73615 10.2627C5.13603 9.66262 4.79889 8.84869 4.79889 8ZM7.99889 5.6C7.36237 5.6 6.75192 5.85285 6.30183 6.30294C5.85175 6.75303 5.59889 7.36348 5.59889 8C5.59889 8.63651 5.85175 9.24696 6.30183 9.69705C6.75192 10.1471 7.36237 10.4 7.99889 10.4C8.63541 10.4 9.24586 10.1471 9.69594 9.69705C10.146 9.24696 10.3989 8.63651 10.3989 8C10.3989 7.36348 10.146 6.75303 9.69594 6.30294C9.24586 5.85285 8.63541 5.6 7.99889 5.6Z" fill="#BE385E"/>
<path d="M2.66449 8C2.66449 5.05386 5.05276 2.6656 7.99889 2.6656C10.945 2.6656 13.3333 5.05386 13.3333 8C13.3333 10.9461 10.945 13.3344 7.99889 13.3344C5.05276 13.3344 2.66449 10.9461 2.66449 8ZM7.99889 3.4656C7.40342 3.4656 6.81379 3.58288 6.26365 3.81076C5.71351 4.03863 5.21364 4.37263 4.79258 4.79369C4.37153 5.21475 4.03753 5.71462 3.80965 6.26476C3.58178 6.81489 3.46449 7.40453 3.46449 8C3.46449 8.59546 3.58178 9.1851 3.80965 9.73524C4.03753 10.2854 4.37153 10.7852 4.79258 11.2063C5.21364 11.6274 5.71351 11.9614 6.26365 12.1892C6.81379 12.4171 7.40342 12.5344 7.99889 12.5344C9.20149 12.5344 10.3548 12.0567 11.2052 11.2063C12.0556 10.3559 12.5333 9.20259 12.5333 8C12.5333 6.7974 12.0556 5.64406 11.2052 4.79369C10.3548 3.94333 9.20149 3.4656 7.99889 3.4656Z" fill="#BE385E"/>
</svg>
