<svg width="16" height="16" viewBox="0 0 16 16" fill="none" xmlns="http://www.w3.org/2000/svg">
<rect width="16" height="16" rx="4" fill="#F5F1FE"/>
<path d="M6.02344 9.06666L5.08104 12.8363C4.98131 13.2341 5.47357 13.5061 5.75784 13.2101L12.1546 6.544C12.209 6.48748 12.2456 6.41621 12.2598 6.33908C12.274 6.26194 12.2652 6.18233 12.2345 6.11015C12.2038 6.03797 12.1526 5.9764 12.0872 5.93311C12.0218 5.88982 11.9451 5.86671 11.8666 5.86666H9.48797L10.3797 3.19306C10.3997 3.13292 10.4052 3.06888 10.3956 3.00621C10.386 2.94355 10.3617 2.88406 10.3246 2.83265C10.2875 2.78124 10.2387 2.73938 10.1823 2.71052C10.1259 2.68166 10.0634 2.66663 9.99997 2.66666H6.26664C6.17973 2.66668 6.09518 2.69501 6.0258 2.74736C5.95642 2.7997 5.90598 2.87323 5.88211 2.9568L4.28211 8.5568C4.2651 8.61632 4.26215 8.67898 4.27347 8.73984C4.2848 8.80069 4.31009 8.85809 4.34737 8.90752C4.38464 8.95694 4.43288 8.99704 4.48828 9.02465C4.54368 9.05227 4.60474 9.06665 4.66664 9.06666H6.02344Z" fill="#8754F6"/>
</svg>
